<?xml version="1.0" encoding="utf-8"?>
<!-- Generated by Mocodo 4.2.4 -->
<svg width="321" height="313" viewBox="0 0 321 313" xmlns="http://www.w3.org/2000/svg">
<rect x="0" y="0" width="321" height="313" fill="#ffffbf" stroke="none" stroke-width="0"/>

<!-- Association OWN -->
<g>
	<line x1="49" y1="228" x2="49" y2="68" stroke="#f46d43" stroke-width="2"/>
	<line x1="152" y1="68" x2="49" y2="68" stroke="#f46d43" stroke-width="2"/>
	<g>
		<path d="M72 43 a14 14 90 0 1 14 14 V68 h-74 V57 a14 14 90 0 1 14 -14" fill="#fdae61" stroke="#fdae61" stroke-width="0"/>
		<path d="M86 68 v11 a14 14 90 0 1 -14 14 H26 a14 14 90 0 1 -14 -14 V68 H74" fill="#fee08b" stroke="#fee08b" stroke-width="0"/>
		<rect x="12" y="43" width="74" height="50" fill="none" rx="14" stroke="#f46d43" stroke-width="2"/>
		<line x1="12" y1="68" x2="86" y2="68" stroke="#f46d43" stroke-width="1"/>
		<text x="34" y="60.75" fill="#000000" font-family="Verdana" font-size="12">OWN</text>
		<text x="19" y="85.8" fill="#000000" font-family="Verdana" font-size="12">owned by</text>
	</g>
	<text x="54" y="144" fill="#3288bd" font-family="Verdana" font-size="12">1,1</text>
	<text x="91" y="85" fill="#3288bd" font-family="Verdana" font-size="12">0,N</text>
</g>

<!-- Association EMPLOY -->
<g>
	<line x1="152" y1="68" x2="265" y2="68" stroke="#f46d43" stroke-width="2"/>
	<line x1="265" y1="228" x2="265" y2="68" stroke="#f46d43" stroke-width="2"/>
	<g>
		<path d="M298 43 a14 14 90 0 1 14 14 V68 h-94 V57 a14 14 90 0 1 14 -14" fill="#fdae61" stroke="#fdae61" stroke-width="0"/>
		<path d="M312 68 v11 a14 14 90 0 1 -14 14 H232 a14 14 90 0 1 -14 -14 V68 H94" fill="#fee08b" stroke="#fee08b" stroke-width="0"/>
		<rect x="218" y="43" width="94" height="50" fill="none" rx="14" stroke="#f46d43" stroke-width="2"/>
		<line x1="218" y1="68" x2="312" y2="68" stroke="#f46d43" stroke-width="1"/>
		<text x="240" y="60.75" fill="#000000" font-family="Verdana" font-size="12">EMPLOY</text>
		<text x="225" y="85.8" fill="#000000" font-family="Verdana" font-size="12">employed by</text>
	</g>
	<text x="191" y="85" fill="#3288bd" font-family="Verdana" font-size="12">1,1</text>
	<text x="270" y="161" fill="#3288bd" font-family="Verdana" font-size="12">0,N</text>
</g>

<!-- Entity USER -->
<g>
	<g>
		<rect x="118" y="9" width="68" height="25" fill="#abdda4" stroke="none" stroke-width="0" opacity="1"/>
		<rect x="118" y="34" width="68" height="93" fill="#e6f598" stroke="none" stroke-width="0" opacity="1"/>
		<rect x="118" y="9" width="68" height="118" fill="none" stroke="#66c2a5" stroke-width="2" opacity="1"/>
		<line x1="118" y1="34" x2="186" y2="34" stroke="#66c2a5" stroke-width="1"/>
	</g>
	<text x="139" y="26.75" fill="#000000" font-family="Verdana" font-size="12">user</text>
	<text x="123" y="51.8" fill="#000000" font-family="Verdana" font-size="12">firstname</text>
	<line x1="123" y1="54" x2="181" y2="54" stroke="#000000" stroke-width="1"/>
	<text x="123" y="68.8" fill="#000000" font-family="Verdana" font-size="12">lastname</text>
	<text x="123" y="85.8" fill="#000000" font-family="Verdana" font-size="12">email</text>
	<text x="123" y="102.8" fill="#000000" font-family="Verdana" font-size="12">password</text>
	<text x="123" y="119.8" fill="#000000" font-family="Verdana" font-size="12">type</text>
</g>

<!-- Entity VIRTUALCARD -->
<g>
	<g>
		<rect x="9" y="152" width="80" height="25" fill="#abdda4" stroke="none" stroke-width="0" opacity="1"/>
		<rect x="9" y="177" width="80" height="127" fill="#e6f598" stroke="none" stroke-width="0" opacity="1"/>
		<rect x="9" y="152" width="80" height="152" fill="none" stroke="#66c2a5" stroke-width="2" opacity="1"/>
		<line x1="9" y1="177" x2="89" y2="177" stroke="#66c2a5" stroke-width="1"/>
	</g>
	<text x="15" y="169.75" fill="#000000" font-family="Verdana" font-size="12">VirtualCard</text>
	<text x="14" y="194.8" fill="#000000" font-family="Verdana" font-size="12">number</text>
	<line x1="14" y1="197" x2="62" y2="197" stroke="#000000" stroke-width="1"/>
	<text x="14" y="211.8" fill="#000000" font-family="Verdana" font-size="12">holder</text>
	<text x="14" y="228.8" fill="#000000" font-family="Verdana" font-size="12">month</text>
	<text x="14" y="245.8" fill="#000000" font-family="Verdana" font-size="12">year</text>
	<text x="14" y="262.8" fill="#000000" font-family="Verdana" font-size="12">cvc</text>
	<text x="14" y="279.8" fill="#000000" font-family="Verdana" font-size="12">amount</text>
	<text x="14" y="296.8" fill="#000000" font-family="Verdana" font-size="12">status</text>
</g>

<!-- Entity COMPANY -->
<g>
	<g>
		<rect x="231" y="169" width="68" height="25" fill="#abdda4" stroke="none" stroke-width="0" opacity="1"/>
		<rect x="231" y="194" width="68" height="93" fill="#e6f598" stroke="none" stroke-width="0" opacity="1"/>
		<rect x="231" y="169" width="68" height="118" fill="none" stroke="#66c2a5" stroke-width="2" opacity="1"/>
		<line x1="231" y1="194" x2="299" y2="194" stroke="#66c2a5" stroke-width="1"/>
	</g>
	<text x="236" y="186.75" fill="#000000" font-family="Verdana" font-size="12">Company</text>
	<text x="236" y="211.8" fill="#000000" font-family="Verdana" font-size="12">name</text>
	<line x1="236" y1="214" x2="271" y2="214" stroke="#000000" stroke-width="1"/>
	<text x="236" y="228.8" fill="#000000" font-family="Verdana" font-size="12">address</text>
	<text x="236" y="245.8" fill="#000000" font-family="Verdana" font-size="12">zipcode</text>
	<text x="236" y="262.8" fill="#000000" font-family="Verdana" font-size="12">city</text>
	<text x="236" y="279.8" fill="#000000" font-family="Verdana" font-size="12">country</text>
</g>
</svg>